<?xml version="1.0" encoding="UTF-8" standalone="no"?>
<!-- Created with Inkscape (http://www.inkscape.org/) -->

<svg
   xmlns:dc="http://purl.org/dc/elements/1.1/"
   xmlns:cc="http://creativecommons.org/ns#"
   xmlns:rdf="http://www.w3.org/1999/02/22-rdf-syntax-ns#"
   xmlns:svg="http://www.w3.org/2000/svg"
   xmlns="http://www.w3.org/2000/svg"
   xmlns:xlink="http://www.w3.org/1999/xlink"
   xmlns:sodipodi="http://sodipodi.sourceforge.net/DTD/sodipodi-0.dtd"
   xmlns:inkscape="http://www.inkscape.org/namespaces/inkscape"
   width="1024"
   height="1024"
   id="svg2"
   version="1.1"
   inkscape:version="0.91 r13725"
   sodipodi:docname="ic_launcher.svg">
  <defs
     id="defs4">
    <linearGradient
       id="linearGradient5552">
      <stop
         id="stop5554"
         offset="0"
         style="stop-color:#ffffff;stop-opacity:0.31623933;" />
      <stop
         id="stop5556"
         offset="1"
         style="stop-color:#000000;stop-opacity:0;" />
    </linearGradient>
    <linearGradient
       id="linearGradient5540">
      <stop
         style="stop-color:#303030;stop-opacity:1;"
         offset="0"
         id="stop5542" />
      <stop
         style="stop-color:#101010;stop-opacity:1;"
         offset="1"
         id="stop5544" />
    </linearGradient>
    <linearGradient
       inkscape:collect="always"
       xlink:href="#linearGradient5540"
       id="linearGradient5546"
       x1="630.56232"
       y1="94.647896"
       x2="382.00916"
       y2="946.07648"
       gradientUnits="userSpaceOnUse" />
    <linearGradient
       inkscape:collect="always"
       xlink:href="#linearGradient5552"
       id="linearGradient5633"
       gradientUnits="userSpaceOnUse"
       x1="484.84802"
       y1="180.36218"
       x2="384.8663"
       y2="200.36221" />
  </defs>
  <sodipodi:namedview
     id="base"
     pagecolor="#ffffff"
     bordercolor="#f0f0f0"
     borderopacity="1"
     inkscape:pageopacity="0.0"
     inkscape:pageshadow="2"
     inkscape:zoom="0.11523438"
     inkscape:cx="512"
     inkscape:cy="512"
     inkscape:document-units="px"
     inkscape:current-layer="layer1"
     showgrid="false"
     inkscape:showpageshadow="false"
     objecttolerance="10000"
     guidetolerance="10000"
     inkscape:snap-global="false"
     inkscape:window-width="1203"
     inkscape:window-height="660"
     inkscape:window-x="11"
     inkscape:window-y="6"
     inkscape:window-maximized="0"
     showborder="true"
     borderlayer="false">
    <inkscape:grid
       type="xygrid"
       id="grid4111"
       empspacing="5"
       visible="true"
       enabled="true"
       snapvisiblegridlinesonly="true" />
  </sodipodi:namedview>
  <metadata
     id="metadata7">
    <rdf:RDF>
      <cc:Work
         rdf:about="">
        <dc:format>image/svg+xml</dc:format>
        <dc:type
           rdf:resource="http://purl.org/dc/dcmitype/StillImage" />
        <dc:title></dc:title>
      </cc:Work>
    </rdf:RDF>
  </metadata>
  <g
     inkscape:label="Layer 1"
     inkscape:groupmode="layer"
     id="layer1"
     transform="translate(0,-28.362183)">
    <rect
       ry="22.478081"
       rx="22.478081"
       y="55.141296"
       x="236.2766"
       height="970.44183"
       width="551.44684"
       id="rect5607"
       style="fill:url(#linearGradient5546);fill-opacity:1;stroke:#000000;stroke-opacity:1;stroke-width:24;stroke-miterlimit:4;stroke-dasharray:none" />
    <rect
       style="fill:url(#linearGradient5546);fill-opacity:1;stroke:none"
       id="rect2993"
       width="551.44684"
       height="970.44183"
       x="236.2766"
       y="55.141296"
       rx="22.478081"
       ry="22.478081" />
    <path
       style="fill:#000000;fill-opacity:1;stroke:#000000;stroke-width:12;stroke-linecap:round;stroke-miterlimit:4;stroke-opacity:1;stroke-dasharray:none"
       d="m 275.12563,134.43402 473.74901,0 c 6.76302,0 12.2076,5.44459 12.2076,12.2076 l 0,790.6144 c 0,6.76301 -5.44458,12.2076 -12.2076,12.2076 l -473.74901,0 c -6.76301,0 -12.2076,-5.44459 -12.2076,-12.2076 l 0,-790.6144 c 0,-6.76301 5.44459,-12.2076 12.2076,-12.2076 z"
       id="rect5600"
       inkscape:connector-curvature="0"
       sodipodi:nodetypes="sssssssss" />
    <g
       id="g5530"
       transform="translate(-220,0)">
      <path
         inkscape:connector-curvature="0"
         style="font-size:medium;font-style:normal;font-variant:normal;font-weight:normal;font-stretch:normal;text-indent:0;text-align:start;text-decoration:none;line-height:normal;letter-spacing:normal;word-spacing:normal;text-transform:none;direction:ltr;block-progression:tb;writing-mode:lr-tb;text-anchor:start;baseline-shift:baseline;color:#000000;fill:#0090d0;fill-opacity:1;fill-rule:nonzero;stroke:none;stroke-width:231.57901001;marker:none;visibility:visible;display:inline;overflow:visible;enable-background:accumulate;font-family:Sans;-inkscape-font-specification:Sans"
         d="m 495.125,168.42468 c -6.763,0 -12.2188,5.45574 -12.2188,12.21875 l 0,119.5625 c 99.6128,17.16237 210.5623,53.65625 352.7188,53.65625 52.4267,0 100.5762,-4.96983 145.4688,-12.125 l 0,-161.09375 c 0,-6.76301 -5.4558,-12.21875 -12.2188,-12.21875 l -473.75,0 z"
         id="path5514" />
      <path
         inkscape:connector-curvature="0"
         style="font-size:medium;font-style:normal;font-variant:normal;font-weight:normal;font-stretch:normal;text-indent:0;text-align:start;text-decoration:none;line-height:normal;letter-spacing:normal;word-spacing:normal;text-transform:none;direction:ltr;block-progression:tb;writing-mode:lr-tb;text-anchor:start;baseline-shift:baseline;color:#000000;fill:#0060a0;fill-opacity:1;stroke:none;stroke-width:231.57901001;marker:none;visibility:visible;display:inline;overflow:visible;enable-background:accumulate;font-family:Sans;-inkscape-font-specification:Sans"
         d="m 482.9062,224.58093 0,232.375 c 37.7763,4.8465 66.4668,12.84707 101.9063,22.3125 58.3896,15.5951 135.1087,35.09375 250.8125,35.09375 57.1745,0 104.8351,-4.77324 145.4688,-11.5 l 0,-235.59375 c -38.9182,9.36618 -78.3824,15.53125 -145.4688,15.53125 -92.5852,0 -132.6416,-11.68615 -191.0312,-27.28125 -41.9095,-11.19346 -93.2548,-24.37541 -161.6876,-30.9375 z"
         id="path5516" />
      <path
         inkscape:connector-curvature="0"
         style="font-size:medium;font-style:normal;font-variant:normal;font-weight:normal;font-stretch:normal;text-indent:0;text-align:start;text-decoration:none;line-height:normal;letter-spacing:normal;word-spacing:normal;text-transform:none;direction:ltr;block-progression:tb;writing-mode:lr-tb;text-anchor:start;baseline-shift:baseline;color:#000000;fill:#00b0f0;fill-opacity:1;stroke:none;stroke-width:231.57901001;marker:none;visibility:visible;display:inline;overflow:visible;enable-background:accumulate;font-family:Sans;-inkscape-font-specification:Sans"
         d="m 482.9062,320.61218 0,232.40625 c 37.7763,4.83745 66.4668,12.81582 101.9063,22.28125 58.3896,15.5951 135.1087,35.125 250.8125,35.125 57.175,0 104.8349,-4.79669 145.4688,-11.53125 l 0,-235.5625 c -38.9182,9.35715 -78.3824,15.5 -145.4688,15.5 -92.5852,0 -132.6416,-11.6549 -191.0312,-27.25 -41.9096,-11.19347 -93.2548,-24.39757 -161.6876,-30.96875 z"
         id="path5518" />
      <path
         inkscape:connector-curvature="0"
         style="font-size:medium;font-style:normal;font-variant:normal;font-weight:normal;font-stretch:normal;text-indent:0;text-align:start;text-decoration:none;line-height:normal;letter-spacing:normal;word-spacing:normal;text-transform:none;direction:ltr;block-progression:tb;writing-mode:lr-tb;text-anchor:start;baseline-shift:baseline;color:#000000;fill:#0080c0;fill-opacity:1;stroke:none;stroke-width:231.57901001;marker:none;visibility:visible;display:inline;overflow:visible;enable-background:accumulate;font-family:Sans;-inkscape-font-specification:Sans"
         d="m 482.9062,416.64343 0,232.40625 c 37.7763,4.8465 66.4668,12.84707 101.9063,22.3125 58.3896,15.5951 135.1087,35.09375 250.8125,35.09375 57.175,0 104.8349,-4.79669 145.4688,-11.53125 l 0,-235.5625 c -38.9182,9.36618 -78.3824,15.53125 -145.4688,15.53125 -92.5852,0 -132.6416,-11.68615 -191.0312,-27.28125 -41.9096,-11.19347 -93.2548,-24.39757 -161.6876,-30.96875 z"
         id="path5520" />
      <path
         inkscape:connector-curvature="0"
         style="font-size:medium;font-style:normal;font-variant:normal;font-weight:normal;font-stretch:normal;text-indent:0;text-align:start;text-decoration:none;line-height:normal;letter-spacing:normal;word-spacing:normal;text-transform:none;direction:ltr;block-progression:tb;writing-mode:lr-tb;text-anchor:start;baseline-shift:baseline;color:#000000;fill:#00a0e0;fill-opacity:1;stroke:none;stroke-width:231.57901001;marker:none;visibility:visible;display:inline;overflow:visible;enable-background:accumulate;font-family:Sans;-inkscape-font-specification:Sans"
         d="m 482.9062,555.42468 0,232.375 c 37.7763,4.84649 66.4668,12.84706 101.9063,22.3125 58.3896,15.59511 135.1087,35.125 250.8125,35.125 57.175,0 104.8349,-4.79669 145.4688,-11.53125 l 0,-235.5625 c -38.9182,9.35715 -78.3824,15.5 -145.4688,15.5 -92.5852,0 -132.6416,-11.68614 -191.0312,-27.28125 -41.9095,-11.19347 -93.2548,-24.37541 -161.6876,-30.9375 z"
         id="path5522" />
      <path
         inkscape:connector-curvature="0"
         style="font-size:medium;font-style:normal;font-variant:normal;font-weight:normal;font-stretch:normal;text-indent:0;text-align:start;text-decoration:none;line-height:normal;letter-spacing:normal;word-spacing:normal;text-transform:none;direction:ltr;block-progression:tb;writing-mode:lr-tb;text-anchor:start;baseline-shift:baseline;color:#000000;fill:#0090d0;fill-opacity:1;stroke:none;stroke-width:231.57901001;marker:none;visibility:visible;display:inline;overflow:visible;enable-background:accumulate;font-family:Sans;-inkscape-font-specification:Sans"
         d="m 482.9062,705.33093 0,171.9375 c 0,6.76301 5.4558,12.1875 12.2188,12.1875 l 473.75,0 c 6.763,0 12.2188,-5.42449 12.2188,-12.1875 l 0,-134.21875 c -51.3827,11.08744 -99.1016,19.96875 -145.4688,19.96875 -102.8337,0 -211.8841,-43.20204 -352.7188,-57.6875 z"
         id="path5524" />
      <path
         inkscape:connector-curvature="0"
         style="font-size:medium;font-style:normal;font-variant:normal;font-weight:normal;font-stretch:normal;text-indent:0;text-align:start;text-decoration:none;line-height:normal;letter-spacing:normal;word-spacing:normal;text-transform:none;direction:ltr;block-progression:tb;writing-mode:lr-tb;text-anchor:start;baseline-shift:baseline;color:#000000;fill:#0060a0;fill-opacity:1;stroke:none;stroke-width:231.57901001;marker:none;visibility:visible;display:inline;overflow:visible;enable-background:accumulate;font-family:Sans;-inkscape-font-specification:Sans"
         d="m 482.9062,758.51843 0,118.75 c 0,6.76301 5.4558,12.1875 12.2188,12.1875 l 473.75,0 c 6.763,0 12.2188,-5.42449 12.2188,-12.1875 l 0,-76.03125 c -38.9182,9.35715 -78.3824,15.5 -145.4688,15.5 -92.5852,0 -132.6416,-11.6549 -191.0312,-27.25 -41.9096,-11.19347 -93.2548,-24.39757 -161.6876,-30.96875 z"
         id="path5526" />
      <path
         inkscape:connector-curvature="0"
         style="font-size:medium;font-style:normal;font-variant:normal;font-weight:normal;font-stretch:normal;text-indent:0;text-align:start;text-decoration:none;line-height:normal;letter-spacing:normal;word-spacing:normal;text-transform:none;direction:ltr;block-progression:tb;writing-mode:lr-tb;text-anchor:start;baseline-shift:baseline;color:#000000;fill:#00b0f0;fill-opacity:1;stroke:none;stroke-width:231.57901001;marker:none;visibility:visible;display:inline;overflow:visible;enable-background:accumulate;font-family:Sans;-inkscape-font-specification:Sans"
         d="m 482.9062,854.58093 0,22.6875 c 0,6.76301 5.4558,12.1875 12.2188,12.1875 l 164.2188,0 c -4.8502,-1.29277 -9.669,-2.58041 -14.75,-3.9375 -41.9095,-11.19346 -93.2548,-24.37541 -161.6876,-30.9375 z"
         id="path5528" />
    </g>
    <rect
       style="opacity:1;fill:#000000;fill-opacity:1;stroke:none"
       id="rect5586"
       width="133.34013"
       height="14.142136"
       x="445.32996"
       y="88.676659"
       rx="3.2852347"
       ry="3.2852347" />
    <path
       sodipodi:type="arc"
       style="opacity:0.40495869;fill:#000000;fill-opacity:1;stroke:none"
       id="path5588"
       sodipodi:cx="673.57141"
       sodipodi:cy="76.142853"
       sodipodi:rx="18.571428"
       sodipodi:ry="18.571428"
       d="M 692.14284,76.142853 A 18.571428,18.571428 0 0 1 673.59937,94.71426 18.571428,18.571428 0 0 1 655.00007,76.198777 18.571428,18.571428 0 0 1 673.48753,57.571614 18.571428,18.571428 0 0 1 692.1425,76.031005"
       transform="translate(6.4285714,21.933612)"
       sodipodi:start="0"
       sodipodi:end="6.2771627"
       sodipodi:open="true" />
    <path
       sodipodi:open="true"
       sodipodi:end="6.2771627"
       sodipodi:start="0"
       transform="matrix(0.64451381,0,0,0.64451381,245.87391,49.001345)"
       d="M 692.14284,76.142853 A 18.571428,18.571428 0 0 1 673.59937,94.71426 18.571428,18.571428 0 0 1 655.00007,76.198777 18.571428,18.571428 0 0 1 673.48753,57.571614 18.571428,18.571428 0 0 1 692.1425,76.031005"
       sodipodi:ry="18.571428"
       sodipodi:rx="18.571428"
       sodipodi:cy="76.142853"
       sodipodi:cx="673.57141"
       id="path5590"
       style="opacity:1;fill:#000000;fill-opacity:1;stroke:none"
       sodipodi:type="arc" />
    <rect
       ry="22.478081"
       rx="22.478081"
       y="55.141296"
       x="236.27661"
       height="970.44183"
       width="551.44684"
       id="rect5548"
       style="opacity:0.21487606;fill:url(#linearGradient5633);fill-opacity:1;stroke:none" />
  </g>
</svg>
